<?xml version="1.0" encoding="UTF-8" standalone="no"?>
<svg width="16px" height="16px" viewBox="0 0 16 16" version="1.1" xmlns="http://www.w3.org/2000/svg" xmlns:xlink="http://www.w3.org/1999/xlink">
    <defs></defs>
    <g id="Page-1" stroke="none" stroke-width="1" fill="none" fill-rule="evenodd">
        <g id="Pokeball" fill="#F21779">
            <path d="M8,16 C12.418278,16 16,12.418278 16,8 C16,3.581722 12.418278,0 8,0 C3.581722,0 0,3.581722 0,8 C0,12.418278 3.581722,16 8,16 Z M8,14 C11.3137085,14 14,11.3137085 14,8 C14,4.6862915 11.3137085,2 8,2 C4.6862915,2 2,4.6862915 2,8 C2,11.3137085 4.6862915,14 8,14 Z" id="base" opacity="0.799999952"></path>
            <path d="M5.17070571,7 L2.08295844,7 C2.55903653,4.16228666 5.02700371,2 8,2 C10.9729963,2 13.4409635,4.16228666 13.9170416,7 L10.8292943,7 C10.4174579,5.83480763 9.30621883,5 8,5 C6.69378117,5 5.58254212,5.83480763 5.17070571,7 Z" id="top" opacity="0.3"></path>
            <path d="M8,11 C9.65685425,11 11,9.65685425 11,8 C11,6.34314575 9.65685425,5 8,5 C6.34314575,5 5,6.34314575 5,8 C5,9.65685425 6.34314575,11 8,11 Z M8,10 C9.1045695,10 10,9.1045695 10,8 C10,6.8954305 9.1045695,6 8,6 C6.8954305,6 6,6.8954305 6,8 C6,9.1045695 6.8954305,10 8,10 Z" id="center" opacity="0.8"></path>
            <path d="M5.17070571,7 L2,7 L2,9 L5.17070571,9 C5.06015422,8.68722107 5,8.35063542 5,8 C5,7.64936458 5.06015422,7.31277893 5.17070571,7 Z M10.8292943,7 L14,7 L14,9 L10.8292943,9 C10.9398458,8.68722107 11,8.35063542 11,8 C11,7.64936458 10.9398458,7.31277893 10.8292943,7 Z" id="divider" opacity="0.799999952"></path>
        </g>
    </g>
</svg>